<svg xmlns="http://www.w3.org/2000/svg" viewBox="0 0 2048 2048"><defs><style>.cls-1{fill:#12b582;}.cls-2{fill:#fff;}.cls-3{fill:none;}.cls-4{fill:#1a1a1a;}.cls-5{opacity:0.08;}</style></defs><title>Asset 5</title><g id="Layer_2" data-name="Layer 2"><g id="N"><path class="cls-1" d="M0,0C565.54,0,1024,458.46,1024,1024S565.54,2048,0,2048H2048V0Z"/><path class="cls-2" d="M1024,1024C1024,458.46,565.54,0,0,0V2048C565.54,2048,1024,1589.54,1024,1024Z"/><polygon class="cls-3" points="1671 0 1670 523.61 1667.42 1657 1021.41 725.73 517.99 0 0 0 0 2048 397 2048 398 1563.99 398 430.61 1046.58 1361.87 1522.54 2048 2048 2048 2048 0 1671 0"/><polygon class="cls-4" points="1667 1657 1670 523.61 1670 0 517.99 0 1021.42 725.73 1667 1657"/><polygon class="cls-4" points="401 430.61 398 1563.99 398 2048 1522.54 2048 1046.58 1361.87 401 430.61"/><path class="cls-1" d="M0,0C565.54,0,1024,458.46,1024,1024S565.54,2048,0,2048H2048V0Z"/><path class="cls-2" d="M1024,1024C1024,458.46,565.54,0,0,0V2048C565.54,2048,1024,1589.54,1024,1024Z"/><polygon class="cls-3" points="1671 0 1670 523.61 1667.42 1657 1021.41 725.73 517.99 0 0 0 0 2048 397 2048 398 1563.99 398 430.61 1046.58 1361.87 1522.54 2048 2048 2048 2048 0 1671 0"/><polygon class="cls-4" points="1667 1657 1670 523.61 1670 0 517.99 0 1021.42 725.73 1667 1657"/><polygon class="cls-4" points="401 430.61 398 1563.99 398 2048 1522.54 2048 1046.58 1361.87 401 430.61"/><g class="cls-5"><path class="cls-2" d="M397.17,1968.12,397,2048h1v-80.23Z"/><path class="cls-2" d="M1670.44,293.4l-.44.37V523.61Z"/><polygon class="cls-2" points="1667.42 1657 1670 523.61 1667 1656.4 1667.42 1657"/><path class="cls-2" d="M398,1967.77V1564l-.83,404.12Z"/><path class="cls-2" d="M398,1548.76l0,0V1564Z"/><path class="cls-2" d="M1670.44,293.4,1670,523.61,1667.42,1657l-.42-.6v.6L1085.31,817.89c-79.49,76.84-161.68,158.7-245.71,245.41l207,298.57,476,686.13H2048V0S1902.23,101.54,1670.44,293.4Z"/><path class="cls-2" d="M398,1564v-15.2C265,1704.87,131.25,1871.47,0,2048H397l.17-79.88Z"/><path class="cls-2" d="M1667,1656.4l3-1132.79V293.77c-160.37,132.75-361.85,308.7-584.69,524.12L1667,1657Z"/><path class="cls-2" d="M839.6,1063.3c-143.37,148-292,310.06-441.56,485.46l0,15.24v484H1522.54l-476-686.13Z"/></g></g></g></svg>