<svg xmlns="http://www.w3.org/2000/svg" viewBox="0 0 2048 2850.35"><defs><style>.cls-1,.cls-5{fill:#12b582;}.cls-2{fill:#fff;}.cls-3{fill:none;}.cls-4,.cls-6{fill:#1a1a1a;}.cls-5,.cls-6{stroke:#fff;stroke-miterlimit:10;}.cls-6{stroke-width:4px;}.cls-7{opacity:0.08;}</style></defs><title>Asset 6</title><g id="Layer_2" data-name="Layer 2"><g id="N"><path class="cls-1" d="M0,0C565.54,0,1024,458.46,1024,1024S565.54,2048,0,2048H2048V0Z"/><path class="cls-2" d="M1024,1024C1024,458.46,565.54,0,0,0V2048C565.54,2048,1024,1589.54,1024,1024Z"/><polygon class="cls-3" points="1671 0 1670 523.61 1667.42 1657 1021.41 725.73 517.99 0 0 0 0 2048 397 2048 398 1563.99 398 430.61 1046.58 1361.87 1522.54 2048 2048 2048 2048 0 1671 0"/><polygon class="cls-4" points="1667 1657 1670 523.61 1670 0 517.99 0 1021.42 725.73 1667 1657"/><polygon class="cls-4" points="401 430.61 398 1563.99 398 2048 1522.54 2048 1046.58 1361.87 401 430.61"/><path class="cls-1" d="M0,0C565.54,0,1024,458.46,1024,1024S565.54,2048,0,2048H2048V0Z"/><path class="cls-2" d="M1024,1024C1024,458.46,565.54,0,0,0V2048C565.54,2048,1024,1589.54,1024,1024Z"/><polygon class="cls-3" points="1671 0 1670 523.61 1667.42 1657 1021.41 725.73 517.99 0 0 0 0 2048 397 2048 398 1563.99 398 430.61 1046.58 1361.87 1522.54 2048 2048 2048 2048 0 1671 0"/><polygon class="cls-4" points="1667 1657 1670 523.61 1670 0 517.99 0 1021.42 725.73 1667 1657"/><polygon class="cls-4" points="401 430.61 398 1563.99 398 2048 1522.54 2048 1046.58 1361.87 401 430.61"/><path class="cls-5" d="M291,2286.47q0,67-46.33,103.27T114.39,2426H5.63v-267.7H122q80.93,0,125,33T291,2286.47ZM196.7,2289q0-36.81-18.28-54.57t-55.53-17.76H96.45v150h20.24q41.38,0,60.7-19.14T196.7,2289Z"/><path class="cls-5" d="M557.48,2426l-16.56-50.17H431.7l-17,50.17h-99.8l109.68-268.8H545.75L656.81,2426ZM522.07,2316.5l-14.49-43.95q-5.06-14.64-12.3-37.9t-9.54-33.33q-2.07,9.34-8.17,30.76t-27,84.42Z"/><path class="cls-5" d="M881.92,2158.29H983.55L873.41,2426H766.49l-109.68-267.7H758.9L804.66,2294q14.25,45.22,15.64,63a278.3,278.3,0,0,1,6.43-32q4.83-19.23,8.51-30.22Z"/><path class="cls-5" d="M1219.47,2426H1019.88v-267.7h199.59v58.05H1110.71v42.11h100.71v58.05H1110.71V2367h108.76Z"/><path class="cls-5" d="M1398.36,2257.54l57.94-99.25h98.41l-110.6,163.15V2426H1352.6V2323.64L1242,2158.29h98.87Z"/><path class="cls-5" d="M278,2830.35H176.57L72,2641.75H70.25Q74,2686.26,74,2709.69v120.66H5.44v-267.7h101l104.17,186h1.17q-2.75-40.47-2.74-65v-121H278Z"/><path class="cls-5" d="M509.82,2830.35h-170v-267.7h170v58H417.2v42.11H503v58.05H417.2v50.53h92.62Z"/><path class="cls-5" d="M869.1,2830.35H777.67l-27.41-116.64q-2-7.32-6.17-29.11t-6.17-36.44q-1.57,11.91-5.09,29.57t-7,32.51q-3.43,14.82-28.49,120.11H606l-70.88-267.7h74.6l31.14,134.22q10.56,44.49,14.48,70.86,2.55-18.67,9.11-50.72t12.24-53.1l25.25-101.26h71.67L798,2663.91q6.27,24.36,12.73,56.21t8.61,47.61q2.55-20.33,13.9-70.49L865,2562.65h74.6Z"/><path class="cls-5" d="M1221.93,2830.35H1144.2V2721.22h-89.87v109.13H976.6v-267.7h77.73v99.25h89.87v-99.25h77.73Z"/><path class="cls-5" d="M1459.43,2830.35l-14.1-50.17h-93l-14.49,50.17h-85l93.39-268.8h103.19l94.57,268.8Zm-30.15-109.49-12.34-44q-4.31-14.64-10.47-37.9t-8.13-33.33q-1.75,9.34-6.95,30.76t-23,84.42Z"/><path class="cls-5" d="M1575,2830.35v-267.7h77.34v209.29h110.24v58.41Z"/><path class="cls-5" d="M1808.34,2830.35v-267.7h77.34v209.29h110.24v58.41Z"/><path class="cls-6" d="M314.67,2304.32q0,67.09-46.38,103.38T137.88,2444H29V2176H145.48q81,0,125.11,33T314.67,2304.32Zm-94.39,3q0-36.81-18.29-54.57T146.45,2235H120v150h20.24q41.4,0,60.72-19.14T220.28,2307.34Z"/><path class="cls-6" d="M580.55,2444l-16.5-50H455.21l-17,50H338.08l109.77-269H569.11l111.15,269Zm-35.16-110-14.49-43.95q-5.05-14.64-12.3-37.9t-9.54-33.32q-2.07,9.33-8.17,30.76t-27,84.41Z"/><path class="cls-6" d="M906.08,2176h99.35a1.09,1.09,0,0,1,1,1.5L897.07,2443.33a1.11,1.11,0,0,1-1,.67H790.48a1.11,1.11,0,0,1-1-.67L680.56,2177.5a1.09,1.09,0,0,1,1-1.5h99.8a1.09,1.09,0,0,1,1,.74L828,2311.83q11.58,36.74,14.67,55.36a1.09,1.09,0,0,0,2.14,0q1.82-10.53,5.29-24.38,4.83-19.24,8.52-30.24l46.48-135.83A1.08,1.08,0,0,1,906.08,2176Z"/><path class="cls-6" d="M1243,2444H1043V2176h200v58H1134v42h101v58H1134v51h109Z"/><path class="cls-6" d="M1422,2275.35l58.25-99.35h98.94L1468,2339.33V2444h-92V2341.53L1264.81,2176h99.4Z"/><path class="cls-6" d="M301.31,2848.35H199.89L95.33,2659.76H93.57q3.72,44.49,3.72,67.93v120.66H28.76v-267.7h101l104.16,186h1.17q-2.74-40.47-2.74-65v-121h68.92Z"/><path class="cls-6" d="M533.14,2848.35h-170v-267.7h170v58H440.52v42.11h85.76v58.05H440.52v50.53h92.62Z"/><path class="cls-6" d="M891.64,2848.35H801.79a1,1,0,0,1-1-.78l-27.22-115.85q-2-7.33-6.17-29.12-3.27-16.86-5.17-29.44a1,1,0,0,0-2,0q-1.53,9.77-4.08,22.58-3.52,17.67-6.95,32.5t-28.3,119.33a1,1,0,0,1-1,.78H630.06a1,1,0,0,1-1-.75l-70.34-265.67a1,1,0,0,1,1-1.28h72.46a1,1,0,0,1,1,.79l31,133.43q9.29,39.12,13.44,64.23a1,1,0,0,0,2,0q2.67-17.4,8.14-44.08,6.56-32,12.24-53.1L725,2581.43a1,1,0,0,1,1-.78h70.06a1,1,0,0,1,1,.78l24.29,100.48q6.27,24.36,12.73,56.21,5.17,25.53,7.58,40.71a1,1,0,0,0,2,0q3.3-21.07,12.92-63.59l31.54-133.8a1,1,0,0,1,1-.79h72.47a1,1,0,0,1,1,1.28l-70,265.66A1,1,0,0,1,891.64,2848.35Z"/><path class="cls-6" d="M1245.25,2848.35h-77.73V2739.22h-89.87v109.13H999.92v-267.7h77.73v99.25h89.87v-99.25h77.73Z"/><path class="cls-6" d="M1482.75,2848.35l-14.09-50.17h-93l-14.49,50.17h-85l93.39-268.79h103.19l94.57,268.79Zm-30.15-109.49-12.34-44q-4.3-14.64-10.47-37.9t-8.13-33.33q-1.76,9.34-7,30.77t-23,84.41Z"/><path class="cls-6" d="M1598.27,2848.35v-267.7h77.34v209.29h110.24v58.41Z"/><path class="cls-6" d="M1831.66,2848.35v-267.7H1909v209.29h110.24v58.41Z"/><g class="cls-7"><path class="cls-2" d="M397.17,1968.12,397,2048h1v-80.23Z"/><path class="cls-2" d="M1670.44,293.4l-.44.37V523.61Z"/><polygon class="cls-2" points="1667.42 1657 1670 523.61 1667 1656.4 1667.42 1657"/><path class="cls-2" d="M398,1967.77V1564l-.83,404.12Z"/><path class="cls-2" d="M398,1548.76l0,0V1564Z"/><path class="cls-2" d="M1670.44,293.4,1670,523.61,1667.42,1657l-.42-.6v.6L1085.31,817.89c-79.49,76.84-161.68,158.7-245.71,245.41l207,298.57,476,686.13H2048V0S1902.23,101.54,1670.44,293.4Z"/><path class="cls-2" d="M398,1564v-15.2C265,1704.87,131.25,1871.47,0,2048H397l.17-79.88Z"/><path class="cls-2" d="M1667,1656.4l3-1132.79V293.77c-160.37,132.75-361.85,308.7-584.69,524.12L1667,1657Z"/><path class="cls-2" d="M839.6,1063.3c-143.37,148-292,310.06-441.56,485.46l0,15.24v484H1522.54l-476-686.13Z"/></g></g></g></svg>